<mxfile host="app.diagrams.net" modified="2023-05-27T23:49:19.762Z" agent="Mozilla/5.0 (Windows NT 10.0; Win64; x64) AppleWebKit/537.36 (KHTML, like Gecko) Chrome/113.0.0.0 Safari/537.36 Edg/113.0.1774.57" version="21.3.4" etag="n7npBHtsvsTa2gl_Fvpz" type="github">
  <diagram name="Page-1" id="BjUldsjCV0QIjlAna3Zk">
    <mxGraphModel>
      <root>
        <mxCell id="0" />
        <mxCell id="1" parent="0" />
      </root>
    </mxGraphModel>
  </diagram>
</mxfile>
